<?xml version="1.0" standalone="no"?>
<!DOCTYPE svg PUBLIC "-//W3C//DTD SVG 20010904//EN"
 "http://www.w3.org/TR/2001/REC-SVG-20010904/DTD/svg10.dtd">
<svg version="1.0" xmlns="http://www.w3.org/2000/svg"
 width="2048.000000pt" height="2048.000000pt" viewBox="0 0 2048.000000 2048.000000"
 preserveAspectRatio="xMidYMid meet">

<g transform="translate(0.000000,2048.000000) scale(0.100000,-0.100000)"
fill="#000000" stroke="none">
<path d="M0 10240 l0 -10240 10240 0 10240 0 0 10240 0 10240 -10240 0 -10240
0 0 -10240z m5610 3450 l-11 -25 6 25 c2 14 5 36 6 50 l2 25 4 -25 c2 -14 -1
-37 -7 -50z m6712 -382 c2 -20 0 -34 -4 -32 -4 3 -8 24 -7 47 1 47 6 41 11
-15z m2848 -77 c0 -4 -286 -437 -635 -962 -349 -525 -755 -1135 -902 -1357
-147 -222 -273 -411 -280 -420 -12 -18 64 -133 807 -1222 163 -239 381 -561
485 -715 104 -154 257 -381 340 -505 84 -124 209 -309 278 -412 l126 -188
-848 0 c-752 0 -850 2 -855 15 -3 9 -110 176 -237 373 -128 196 -251 386 -274
422 -43 67 -498 769 -655 1010 -48 74 -92 136 -98 138 -6 2 -16 -7 -23 -20
-18 -34 -347 -553 -559 -883 -53 -82 -159 -247 -235 -365 -139 -217 -197 -306
-358 -554 l-89 -136 -829 0 -830 0 24 33 c35 46 502 747 857 1285 168 254 488
738 712 1075 224 336 408 617 408 622 0 6 -44 78 -98 160 -54 83 -165 254
-247 380 -82 127 -444 673 -804 1215 -361 542 -659 991 -664 998 -6 9 162 12
830 12 l838 0 16 -28 c9 -15 81 -126 159 -247 240 -371 251 -389 503 -786 135
-213 278 -441 319 -508 40 -66 77 -119 82 -118 5 2 82 118 170 258 89 141 208
330 266 420 57 90 165 261 241 379 75 118 197 308 272 422 l136 208 823 3
c453 1 824 3 826 5 1 1 2 -2 2 -7z m-5610 -636 l0 -635 -1204 0 -1205 0 -5
-42 c-19 -137 -117 -859 -122 -891 l-6 -38 66 40 c169 104 340 168 536 202
502 86 1020 -41 1415 -346 89 -69 236 -218 306 -310 175 -228 293 -520 346
-857 25 -158 25 -552 -1 -723 -120 -802 -557 -1381 -1227 -1629 -531 -196
-1269 -206 -1829 -25 -143 46 -360 157 -470 239 -429 322 -695 830 -733 1402
l-4 57 41 5 c23 3 172 10 331 16 160 6 427 18 593 26 167 7 332 14 367 14 l62
0 7 -49 c21 -155 86 -317 171 -422 70 -87 205 -178 320 -216 72 -24 95 -27
235 -27 175 -1 244 14 375 82 83 43 203 159 254 245 133 227 168 617 80 905
-79 255 -270 437 -537 508 -31 8 -111 18 -178 21 -201 10 -380 -30 -513 -114
-67 -43 -146 -124 -168 -174 -17 -38 -18 -39 -72 -39 -85 0 -1009 40 -1069 46
-47 5 -52 7 -47 27 3 12 25 200 50 417 54 466 117 999 145 1230 11 91 36 311
55 490 20 179 53 487 75 685 21 198 42 395 46 438 l7 77 1753 0 1754 0 0 -635z
m6121 441 c-16 -19 -4 -63 22 -81 14 -9 16 -15 8 -15 -23 0 -51 31 -51 57 0
27 19 68 27 59 3 -3 1 -12 -6 -20z m512 -1085 c4 -4 10 -20 13 -36 l5 -28 -26
32 c-42 49 -79 43 -132 -22 -15 -18 23 -86 52 -93 34 -9 78 9 92 36 11 22 13
22 19 7 10 -28 -42 -77 -82 -77 -31 0 -84 32 -84 51 0 6 -7 17 -15 25 -22 22
-18 48 10 83 18 21 37 31 63 34 40 4 72 -1 85 -12z m-11873 -436 c18 -53 7
-62 -12 -10 -9 25 -13 45 -8 45 5 0 14 -16 20 -35z m11390 -111 c15 -10 34
-31 43 -49 12 -26 13 -36 2 -62 -29 -70 -97 -83 -151 -29 -48 48 -41 110 17
142 32 18 55 17 89 -2z m-11420 -20 c0 -8 -19 -13 -24 -6 -3 5 1 9 9 9 8 0 15
-2 15 -3z m27 -26 c-2 -7 -10 -12 -17 -10 -7 2 -10 -3 -7 -12 3 -7 -5 -24 -19
-37 -13 -12 -24 -17 -24 -11 0 7 -7 9 -17 5 -10 -3 2 12 27 35 46 42 65 52 57
30z m13 -82 c0 -2 -8 -10 -17 -17 -16 -13 -17 -12 -4 4 13 16 21 21 21 13z
m11277 -436 c68 0 112 -4 108 -9 -3 -5 -1 -12 5 -16 5 -3 10 1 10 9 0 14 52
16 439 18 l439 3 7 -80 c4 -44 5 -339 4 -656 l-4 -576 48 -72 c31 -47 59 -77
82 -88 38 -18 50 -41 41 -77 l-6 -23 -1047 -5 c-605 -3 -1059 -1 -1075 4 -14
5 -29 16 -32 25 -9 23 16 66 46 81 15 7 52 47 83 89 l55 76 0 648 0 648 73 4
c39 3 193 3 341 1 148 -2 321 -4 383 -4z m-10197 -20 c7 -13 10 -227 10 -645
l-1 -626 57 -80 c36 -52 68 -86 91 -97 41 -20 53 -54 28 -82 -18 -20 -38 -20
-1061 -20 -949 0 -1044 1 -1059 16 -24 25 -14 55 27 84 21 14 62 58 91 98 l54
72 8 325 c4 178 4 461 0 628 -4 167 -4 313 -1 325 l7 22 869 0 c853 0 869 0
880 -20z m5376 -57 c-3 -10 -8 -29 -11 -43 -5 -20 -17 -28 -60 -41 l-55 -16
58 58 c59 60 77 71 68 42z m-367 -220 c-25 -34 -93 -103 -101 -103 -12 0 17
52 41 74 18 16 57 42 70 45 2 1 -2 -7 -10 -16z m271 -60 c13 -17 17 -29 10
-31 -15 -5 -38 16 -56 50 -15 28 -14 29 5 19 11 -6 29 -23 41 -38z m151 -181
c-7 -2 -18 1 -23 6 -8 8 -4 9 13 5 13 -4 18 -8 10 -11z m-810 -748 c-9 -28 -9
-29 -10 -3 -1 14 2 29 6 32 11 12 13 2 4 -29z m489 -4 c0 -5 -2 -10 -4 -10 -3
0 -8 5 -11 10 -3 6 -1 10 4 10 6 0 11 -4 11 -10z m-6513 -1466 c-3 -3 -12 -4
-19 -1 -8 3 -5 6 6 6 11 1 17 -2 13 -5z m8436 -347 c-10 -17 -23 7 -22 41 l1
37 12 -35 c8 -19 11 -38 9 -43z m-893 -420 c-34 -17 -39 -61 -10 -77 35 -19
70 -5 70 28 0 15 -6 34 -12 41 -11 10 -10 11 5 6 11 -5 17 -18 17 -41 0 -43
-34 -69 -72 -55 -56 21 -50 111 7 111 18 0 17 -2 -5 -13z"/>
<path d="M15622 11377 c-25 -26 -27 -48 -11 -80 16 -29 28 -37 61 -37 32 0 68
35 68 66 0 28 -46 74 -75 74 -12 0 -31 -10 -43 -23z"/>
<path d="M15769 10809 c-9 -6 6 -9 45 -9 33 0 57 2 54 5 -10 10 -85 13 -99 4z"/>
<path d="M14880 10197 l0 -587 830 0 830 0 0 580 0 580 -87 0 c-49 0 -422 3
-830 7 l-743 6 0 -586z"/>
<path d="M15144 9550 l-300 -5 -67 -82 -67 -83 425 0 425 0 1 -27 c0 -16 3
-22 6 -15 4 10 43 13 166 11 130 -1 162 2 162 13 0 11 75 14 403 18 l403 5
-59 81 -59 81 -414 6 c-416 7 -471 7 -1025 -3z"/>
<path d="M3720 10196 l0 -586 813 2 812 3 0 577 0 577 -812 6 -813 6 0 -585z"/>
<path d="M3635 9483 c-28 -36 -56 -75 -64 -85 -13 -18 -1 -18 395 -18 225 0
414 0 419 0 6 -1 66 -1 135 -2 99 0 115 -2 75 -8 -27 -5 -83 -9 -122 -9 -44
-1 -73 -5 -73 -12 0 -5 -5 -7 -12 -3 -8 5 -9 2 -5 -10 4 -10 7 -20 7 -22 0 -2
68 -4 151 -4 l152 0 -6 35 -6 35 420 2 419 3 -41 55 c-22 30 -52 67 -67 83
l-26 27 -850 0 -851 0 -50 -67z"/>
</g>
</svg>
